<?xml version="1.0" encoding="UTF-8"?>
<svg xmlns="http://www.w3.org/2000/svg" xmlns:xlink="http://www.w3.org/1999/xlink" width="25px" height="25px" viewBox="0 0 25 25" version="1.1">
<g id="surface1">
<path style=" stroke:none;fill-rule:evenodd;fill:rgb(0%,0%,0%);fill-opacity:1;" d="M 15.097656 13.59375 L 16.847656 15.429688 C 17.429688 15.011719 18.183594 15.097656 18.597656 15.597656 L 24.351562 21.265625 C 25.769531 22.683594 22.683594 25.769531 21.265625 24.351562 L 15.597656 18.597656 C 15.097656 18.183594 15.011719 17.429688 15.429688 16.847656 L 13.59375 15.097656 C 10.257812 17.597656 5.503906 17.429688 2.503906 14.34375 C -0.835938 11.09375 -0.835938 5.753906 2.503906 2.503906 C 5.753906 -0.835938 11.09375 -0.835938 14.34375 2.503906 C 17.429688 5.503906 17.597656 10.257812 15.097656 13.59375 Z M 16.097656 18.097656 C 15.761719 17.765625 16.347656 17.097656 16.765625 17.515625 L 22.433594 23.1875 C 22.851562 23.601562 22.183594 24.1875 21.769531 23.769531 Z M 3.835938 3.835938 C 6.339844 1.335938 10.507812 1.335938 13.011719 3.835938 C 15.511719 6.339844 15.511719 10.507812 13.011719 13.011719 C 10.507812 15.511719 6.339844 15.511719 3.835938 13.011719 C 1.335938 10.507812 1.335938 6.339844 3.835938 3.835938 Z M 3.835938 3.835938 "/>
</g>
</svg>
