<?xml version="1.0" encoding="UTF-8"?>
<svg xmlns="http://www.w3.org/2000/svg" xmlns:xlink="http://www.w3.org/1999/xlink" width="25px" height="25px" viewBox="0 0 25 25" version="1.1">
<g id="surface1">
<path style=" stroke:none;fill-rule:nonzero;fill:rgb(93.333333%,94.509804%,94.901961%);fill-opacity:1;" d="M 18.832031 19.347656 C 18.984375 19.5 19.230469 19.5 19.382812 19.347656 C 19.535156 19.195312 19.535156 18.949219 19.382812 18.796875 L 5.585938 5.023438 C 5.433594 4.871094 5.1875 4.871094 5.035156 5.023438 C 4.882812 5.175781 4.882812 5.425781 5.035156 5.578125 Z M 18.832031 19.347656 "/>
<path style=" stroke:none;fill-rule:nonzero;fill:rgb(14.509804%,5.490196%,11.764706%);fill-opacity:1;" d="M 1.050781 1.050781 C 2.460938 -0.351562 4.738281 -0.351562 6.148438 1.050781 L 22.703125 17.574219 C 22.753906 17.625 22.789062 17.691406 22.804688 17.761719 L 24.976562 24.484375 C 25.023438 24.625 24.984375 24.78125 24.875 24.886719 C 24.769531 24.988281 24.609375 25.023438 24.46875 24.972656 L 17.761719 22.757812 L 17.757812 22.757812 C 17.699219 22.734375 17.644531 22.703125 17.601562 22.65625 L 1.050781 6.136719 C -0.351562 4.730469 -0.351562 2.457031 1.050781 1.050781 Z M 1.605469 1.601562 C 0.507812 2.703125 0.507812 4.480469 1.605469 5.582031 L 18.09375 22.042969 L 24 23.992188 L 22.082031 18.0625 L 5.59375 1.601562 C 4.492188 0.507812 2.710938 0.507812 1.605469 1.601562 Z M 1.605469 1.601562 "/>
<path style=" stroke:none;fill-rule:nonzero;fill:rgb(14.509804%,5.490196%,11.764706%);fill-opacity:1;" d="M 20.714844 23.300781 C 20.640625 23.5 20.738281 23.726562 20.941406 23.800781 C 21.140625 23.878906 21.367188 23.78125 21.445312 23.582031 C 21.828125 22.589844 22.609375 21.804688 23.601562 21.414062 C 23.804688 21.335938 23.902344 21.109375 23.824219 20.910156 C 23.742188 20.707031 23.515625 20.609375 23.316406 20.6875 C 22.125 21.160156 21.183594 22.105469 20.714844 23.300781 Z M 20.714844 23.300781 "/>
<path style=" stroke:none;fill-rule:nonzero;fill:rgb(14.509804%,5.490196%,11.764706%);fill-opacity:1;" d="M 17.492188 22.414062 C 17.503906 22.554688 17.585938 22.675781 17.710938 22.738281 C 17.839844 22.800781 17.988281 22.789062 18.101562 22.710938 C 18.21875 22.628906 18.285156 22.496094 18.273438 22.355469 C 18.230469 21.804688 18.304688 21.246094 18.5 20.726562 C 18.886719 19.679688 19.714844 18.855469 20.761719 18.464844 C 21.285156 18.273438 21.839844 18.199219 22.394531 18.238281 C 22.535156 18.25 22.671875 18.1875 22.75 18.070312 C 22.828125 17.957031 22.839844 17.808594 22.777344 17.679688 C 22.71875 17.554688 22.59375 17.472656 22.453125 17.460938 C 21.789062 17.410156 21.121094 17.503906 20.492188 17.734375 C 18.554688 18.449219 17.332031 20.359375 17.492188 22.414062 Z M 17.492188 22.414062 "/>
<path style=" stroke:none;fill-rule:nonzero;fill:rgb(14.509804%,5.490196%,11.764706%);fill-opacity:1;" d="M 7.859375 3.308594 C 8.011719 3.15625 8.011719 2.910156 7.859375 2.757812 C 7.707031 2.605469 7.457031 2.605469 7.304688 2.757812 L 5.050781 5.007812 L 2.761719 7.292969 C 2.609375 7.445312 2.609375 7.691406 2.761719 7.84375 C 2.914062 7.996094 3.164062 7.996094 3.316406 7.84375 L 5.605469 5.558594 Z M 7.859375 3.308594 "/>
</g>
</svg>
