<?xml version="1.0" encoding="UTF-8"?>
<svg xmlns="http://www.w3.org/2000/svg" xmlns:xlink="http://www.w3.org/1999/xlink" width="25px" height="25px" viewBox="0 0 25 23" version="1.1">
<g id="surface1">
<path style=" stroke:none;fill-rule:nonzero;fill:rgb(20.784314%,20.784314%,23.921569%);fill-opacity:1;" d="M 23.957031 2.140625 L 18.75 2.140625 L 18.75 1.105469 C 18.75 0.828125 18.640625 0.5625 18.445312 0.367188 C 18.25 0.171875 17.984375 0.0625 17.707031 0.0625 L 7.292969 0.0625 C 7.015625 0.0625 6.75 0.171875 6.554688 0.367188 C 6.359375 0.5625 6.25 0.828125 6.25 1.105469 L 6.25 2.140625 L 1.042969 2.140625 C 0.46875 2.140625 0 2.609375 0 3.183594 C 0 3.757812 0.46875 4.222656 1.042969 4.222656 L 3.125 4.222656 L 3.125 19.816406 C 3.125 21.539062 4.523438 22.9375 6.25 22.9375 L 18.75 22.9375 C 20.476562 22.9375 21.875 21.539062 21.875 19.816406 L 21.875 4.222656 L 23.957031 4.222656 C 24.53125 4.222656 25 3.757812 25 3.183594 C 25 2.609375 24.53125 2.140625 23.957031 2.140625 Z M 19.792969 19.816406 C 19.789062 20.390625 19.324219 20.855469 18.75 20.855469 L 6.25 20.855469 C 5.675781 20.855469 5.210938 20.390625 5.207031 19.816406 L 5.207031 4.222656 L 19.792969 4.222656 Z M 19.792969 19.816406 "/>
<path style=" stroke:none;fill-rule:nonzero;fill:rgb(20.784314%,20.784314%,23.921569%);fill-opacity:1;" d="M 9.375 17.734375 C 9.949219 17.734375 10.414062 17.273438 10.417969 16.699219 L 10.417969 8.378906 C 10.417969 7.804688 9.949219 7.339844 9.375 7.339844 C 8.800781 7.339844 8.332031 7.804688 8.332031 8.378906 L 8.332031 16.699219 C 8.335938 17.273438 8.800781 17.734375 9.375 17.734375 Z M 9.375 17.734375 "/>
<path style=" stroke:none;fill-rule:nonzero;fill:rgb(20.784314%,20.784314%,23.921569%);fill-opacity:1;" d="M 15.625 17.734375 C 16.199219 17.734375 16.664062 17.273438 16.667969 16.699219 L 16.667969 8.378906 C 16.667969 7.804688 16.199219 7.339844 15.625 7.339844 C 15.050781 7.339844 14.582031 7.804688 14.582031 8.378906 L 14.582031 16.699219 C 14.585938 17.273438 15.050781 17.734375 15.625 17.734375 Z M 15.625 17.734375 "/>
</g>
</svg>
